HIERARCHY
ROOT Hips
{
 OFFSET 0.000000 0.000000 0.000000
 CHANNELS 6 Xposition Yposition Zposition Yrotation Xrotation Zrotation
 JOINT Chest
 {
  OFFSET 0.000000 9.585900 0.002600
  CHANNELS 3 Yrotation Xrotation Zrotation
  JOINT Chest2
  {
   OFFSET 0.000000 9.601200 -0.005300
   CHANNELS 3 Yrotation Xrotation Zrotation
   JOINT Chest3
   {
    OFFSET 0.000000 9.561800 0.000000
    CHANNELS 3 Yrotation Xrotation Zrotation
    JOINT Chest4
    {
     OFFSET 0.000000 9.552100 0.000000
     CHANNELS 3 Yrotation Xrotation Zrotation
     JOINT Neck
     {
      OFFSET 0.000000 14.453000 0.000000
      CHANNELS 3 Yrotation Xrotation Zrotation
      JOINT Head
      {
       OFFSET 0.000000 8.936500 -0.011300
       CHANNELS 3 Yrotation Xrotation Zrotation
       End Site
       {
        OFFSET 0.000000 17.073600 -0.006000
       }
      }
     }
     JOINT RightCollar
     {
      OFFSET -2.921100 9.558500 0.000000
      CHANNELS 3 Yrotation Xrotation Zrotation
      JOINT RightShoulder
      {
       OFFSET -13.519700 0.000000 0.000000
       CHANNELS 3 Yrotation Xrotation Zrotation
       JOINT RightElbow
       {
        OFFSET 0.000000 -29.696600 0.000000
        CHANNELS 3 Yrotation Xrotation Zrotation
        JOINT RightWrist
        {
         OFFSET 0.000000 -24.004700 0.000000
         CHANNELS 3 Yrotation Xrotation Zrotation
         End Site
         {
          OFFSET 0.000000 -17.728500 0.000000
         }
        }
       }
      }
     }
     JOINT LeftCollar
     {
      OFFSET 2.921100 9.558500 0.000000
      CHANNELS 3 Yrotation Xrotation Zrotation
      JOINT LeftShoulder
      {
       OFFSET 13.519700 0.000000 0.000000
       CHANNELS 3 Yrotation Xrotation Zrotation
       JOINT LeftElbow
       {
        OFFSET 0.000000 -29.696600 0.000000
        CHANNELS 3 Yrotation Xrotation Zrotation
        JOINT LeftWrist
        {
         OFFSET 0.000000 -24.004700 0.000000
         CHANNELS 3 Yrotation Xrotation Zrotation
         End Site
         {
          OFFSET 0.000000 -17.728500 0.000000
         }
        }
       }
      }
     }
    }
   }
  }
 }
 JOINT RightHip
 {
  OFFSET -7.771700 -0.012900 -0.001300
  CHANNELS 3 Yrotation Xrotation Zrotation
  JOINT RightKnee
  {
   OFFSET 0.000000 -40.869800 0.001200
   CHANNELS 3 Yrotation Xrotation Zrotation
   JOINT RightAnkle
   {
    OFFSET 0.000000 -39.717900 0.002100
    CHANNELS 3 Yrotation Xrotation Zrotation
    JOINT RightToe
    {
     OFFSET 0.000000 -4.965400 11.033500
     CHANNELS 3 Yrotation Xrotation Zrotation
     End Site
     {
      OFFSET 0.000000 -1.423100 5.872300
     }
    }
   }
  }
 }
 JOINT LeftHip
 {
  OFFSET 7.771700 -0.012900 -0.001300
  CHANNELS 3 Yrotation Xrotation Zrotation
  JOINT LeftKnee
  {
   OFFSET 0.000000 -40.869800 0.001200
   CHANNELS 3 Yrotation Xrotation Zrotation
   JOINT LeftAnkle
   {
    OFFSET 0.000000 -39.717900 0.002100
    CHANNELS 3 Yrotation Xrotation Zrotation
    JOINT LeftToe
    {
     OFFSET 0.000000 -4.965400 11.033500
     CHANNELS 3 Yrotation Xrotation Zrotation
     End Site
     {
      OFFSET 0.000000 -1.423100 5.872300
     }
    }
   }
  }
 }
}
MOTION
Frames: 12
Frame Time: 0.008333
0.000000 85.388000 0.000000 0.000000 -5.767877 0.000000 0.000000 11.653817 0.000000 0.000000 -5.885947 0.000000 0.000000 -0.000000 0.000000 0.000000 -0.000000 0.000000 0.000000 12.528835 0.000000 0.000000 0.711642 0.000000 0.000000 -0.000000 0.000000 0.000000 0.000000 -90.000000 0.000000 -2.309062 0.000000 0.000000 2.309062 0.000000 0.000000 -0.000000 0.000000 0.000000 -0.000000 90.000000 0.000000 -2.309062 0.000000 0.000000 2.309062 0.000000 0.000000 8.520406 0.000000 0.000000 1.905762 0.000000 -0.000000 -4.658285 0.000000 0.000000 -0.000000 0.000000 0.000000 8.520406 0.000000 0.000000 1.905762 0.000000 -0.000000 -4.658285 0.000000 0.000000 -0.000000 0.000000
-53.749351 50.157622 35.981333 172.877127 -34.616938 -4.960149 5.607431 21.323663 6.574049 0.652714 3.100763 0.814258 1.063265 4.930176 1.208179 4.616200 18.146536 5.222439 2.872559 17.742400 1.161477 4.906078 -2.841095 1.186439 1.210083 0.319253 -5.600637 7.383524 -12.812690 -17.081748 -116.081920 -52.034995 121.968589 -5.612946 -5.621957 45.357152 -13.135500 0.163406 -0.990300 6.060878 -15.626402 7.700747 103.453942 -47.041435 -133.789774 21.175014 11.625053 -61.986079 3.168557 -47.260784 7.402304 -26.977663 86.367109 -16.052740 -3.292691 -5.947003 -3.375371 0.004704 0.215421 0.006725 -11.439295 -50.183902 17.282271 -135.676090 87.878273 -142.633293 -0.431647 -7.061111 3.205955 -0.032369 -0.198893 0.011302
-53.737220 50.156442 35.982460 172.858934 -34.690138 -4.941307 5.635560 21.439982 6.670283 0.655296 3.109953 0.782271 1.058037 4.925822 1.184815 4.653539 18.248035 5.305630 2.921766 17.856704 1.205687 4.980791 -2.629582 1.255011 1.277331 0.377155 -5.545095 7.347895 -13.028300 -16.927734 -116.434443 -52.139311 122.078824 -5.867138 -5.769690 44.326744 -13.179796 0.211648 -1.023879 5.918112 -15.720143 7.543033 103.918818 -47.271097 -133.894999 21.782754 11.338843 -60.660439 3.190210 -47.196919 7.407408 -26.498373 86.379999 -15.563004 -3.321645 -5.946101 -3.394085 0.006322 0.216825 0.010314 -11.380708 -50.115902 17.251181 -135.799965 87.880491 -142.749975 -0.447510 -7.062013 3.203454 -0.031551 -0.201773 0.008039
-53.724139 50.152949 35.986982 172.839863 -34.751125 -4.920207 5.656451 21.506401 6.679901 0.664507 3.157500 0.828800 1.082109 5.032971 1.261378 4.630774 18.239955 5.275090 2.959234 17.963789 1.245892 5.035400 -2.431467 1.319843 1.342763 0.434036 -5.486168 7.297569 -13.215297 -16.762009 -116.832492 -52.306723 122.222433 -6.081063 -5.908192 43.310248 -13.218770 0.260811 -1.051579 5.774151 -15.794048 7.392395 104.488691 -47.591508 -134.054776 22.351301 10.969727 -59.262198 3.203864 -47.153963 7.434563 -26.390547 86.390224 -15.465637 -3.356047 -5.935556 -3.398463 0.007826 0.212747 0.013607 -11.303533 -50.064765 17.214416 -135.989151 87.885549 -142.925687 -0.474671 -7.064505 3.200151 -0.033156 -0.199386 0.011835
-53.710488 50.146750 35.995655 172.815766 -34.791228 -4.898410 5.685224 21.575022 6.727934 0.666978 3.168431 0.821576 1.099318 5.107028 1.309961 4.634711 18.271074 5.292004 2.984907 18.059728 1.281788 5.069934 -2.254013 1.380392 1.401719 0.493809 -5.427804 7.240267 -13.380773 -16.589603 -117.273934 -52.528044 122.393972 -6.254773 -6.046812 42.301036 -13.253696 0.308436 -1.074672 5.635183 -15.849365 7.249390 105.157702 -47.985521 -134.243259 22.873504 10.538925 -57.829001 3.177958 -47.139565 7.509007 -26.521470 86.393144 -15.649223 -3.392075 -5.907347 -3.389632 0.029381 0.198859 0.018296 -11.255037 -50.034239 17.195048 -135.864055 87.885683 -142.791803 -0.474556 -7.064818 3.188778 -0.031329 -0.200746 0.005015
-53.696575 50.140107 36.005262 172.796715 -34.829238 -4.882973 5.722940 21.675637 6.826953 0.654542 3.117508 0.741860 1.119646 5.184805 1.368296 4.650598 18.320060 5.331335 2.999853 18.143294 1.313410 5.086355 -2.099614 1.436264 1.450627 0.556553 -5.377721 7.183563 -13.525351 -16.407639 -117.742511 -52.783070 122.580215 -6.385751 -6.190164 41.300806 -13.285474 0.354674 -1.097321 5.502898 -15.887941 7.113352 105.907887 -48.434650 -134.459358 23.342364 10.061727 -56.362182 3.157035 -47.122061 7.556502 -26.317585 86.402530 -15.466846 -3.415967 -5.888444 -3.405394 0.030881 0.192969 0.022882 -11.215637 -50.004987 17.180316 -135.646925 87.884064 -142.564743 -0.469425 -7.067760 3.174981 -0.035204 -0.193117 0.008207
-53.683719 50.131773 36.017393 172.787643 -34.848697 -4.874596 5.742385 21.730365 6.875551 0.668522 3.182191 0.794159 1.113835 5.175457 1.340131 4.666436 18.365371 5.370542 3.006483 18.216629 1.342216 5.088471 -1.964323 1.489254 1.487760 0.622495 -5.338145 7.131882 -13.651174 -16.210834 -118.204205 -53.052085 122.761916 -6.476057 -6.335815 40.314855 -13.314547 0.402681 -1.118785 5.374374 -15.909963 6.983372 106.702825 -48.914279 -134.692290 23.744351 9.554736 -54.861415 3.143169 -47.122171 7.583157 -26.050656 86.410864 -15.197816 -3.446386 -5.876258 -3.428542 0.030462 0.193657 0.024099 -11.180866 -49.998557 17.165030 -135.446765 87.888019 -142.348309 -0.468370 -7.065795 3.163943 -0.038368 -0.182608 0.014321
-53.671643 50.123284 36.029847 172.776049 -34.864172 -4.869231 5.764875 21.779156 6.927812 0.672723 3.204937 0.803815 1.120585 5.204126 1.354119 4.681728 18.407561 5.408446 3.007099 18.282306 1.368888 5.080229 -1.843221 1.539962 1.513341 0.691553 -5.305729 7.085092 -13.762819 -16.001041 -118.619787 -53.319539 122.919101 -6.537847 -6.469730 39.350262 -13.339666 0.452780 -1.138595 5.245952 -15.912942 6.862217 107.494124 -49.393228 -134.918216 24.064984 9.040837 -53.335390 3.125306 -47.124768 7.602570 -25.379236 86.424581 -14.512749 -3.481941 -5.862241 -3.465283 0.044555 0.192558 0.024043 -11.148756 -49.996689 17.157579 -135.395458 87.891341 -142.280273 -0.479201 -7.058723 3.156316 -0.039882 -0.180622 0.013229
-53.662401 50.117984 36.037053 172.746915 -34.912115 -4.843644 5.799174 21.849447 6.960015 0.678530 3.230955 0.824072 1.126847 5.232552 1.368095 4.696043 18.445747 5.445200 3.002362 18.341637 1.392396 5.063392 -1.733774 1.586438 1.528197 0.762584 -5.276607 7.045755 -13.861179 -15.787962 -118.966507 -53.577076 123.033744 -6.592076 -6.577457 38.413344 -13.360322 0.504699 -1.157711 5.118305 -15.895946 6.749614 108.254169 -49.859794 -135.121410 24.306103 8.534628 -51.797043 3.108342 -47.096254 7.634795 -25.316803 86.435748 -14.466517 -3.482084 -5.845302 -3.487238 0.053904 0.185275 0.024414 -11.078174 -49.956965 17.121559 -135.311494 87.895384 -142.185322 -0.482369 -7.058497 3.145829 -0.040815 -0.184179 0.010965
-53.655208 50.110225 36.047414 172.732029 -34.928838 -4.827810 5.821020 21.894907 7.002806 0.685216 3.260159 0.845912 1.127818 5.245684 1.367860 4.708289 18.479271 5.480770 2.992247 18.394722 1.411277 5.038372 -1.635832 1.625933 1.533160 0.832260 -5.249231 7.018606 -13.943217 -15.579168 -119.239957 -53.822276 123.098699 -6.655946 -6.658391 37.504108 -13.372271 0.559254 -1.175219 4.986242 -15.862248 6.644739 108.994398 -50.328374 -135.307034 24.499565 8.037248 -50.254606 3.076961 -47.099273 7.662889 -25.271767 86.446473 -14.438696 -3.468568 -5.827718 -3.505677 0.043552 0.180158 0.022920 -11.003436 -49.957419 17.068971 -135.294577 87.902846 -142.134253 -0.479856 -7.054069 3.138032 -0.045287 -0.178817 0.014275
-53.650011 50.102094 36.057779 172.722773 -34.935919 -4.814894 5.838832 21.938544 7.054199 0.681088 3.245786 0.817838 1.139151 5.290365 1.404983 4.717960 18.509303 5.514021 2.978199 18.440891 1.426113 5.007547 -1.550742 1.658971 1.528593 0.894655 -5.221936 7.008025 -14.004617 -15.376050 -119.442423 -54.049890 123.115378 -6.729321 -6.714324 36.626737 -13.370846 0.612126 -1.189218 4.845659 -15.812662 6.549968 109.745862 -50.820494 -135.497267 24.681510 7.555111 -48.722294 3.045859 -47.103406 7.685629 -25.166147 86.447129 -14.346947 -3.459804 -5.806128 -3.523684 0.026428 0.173679 0.020885 -10.945471 -49.974945 17.024010 -135.479624 87.905103 -142.290440 -0.480288 -7.049745 3.137055 -0.046177 -0.173242 0.012702
-53.646611 50.095483 36.065321 172.714028 -34.952611 -4.800646 5.851236 21.986339 7.087354 0.682702 3.237299 0.804718 1.143239 5.316934 1.423810 4.733109 18.550808 5.559329 2.962066 18.480316 1.438149 4.973907 -1.478111 1.687340 1.514879 0.949669 -5.195191 7.017505 -14.044523 -15.176755 -119.580441 -54.255129 123.089886 -6.801632 -6.748870 35.786702 -13.358359 0.657238 -1.199467 4.712249 -15.742565 6.466266 110.530800 -51.346396 -135.721431 24.871549 7.104725 -47.222713 3.020703 -47.104572 7.701704 -25.070670 86.460596 -14.256174 -3.481274 -5.794553 -3.544603 0.037600 0.168819 0.020238 -10.885885 -49.971161 16.972618 -135.511325 87.914002 -142.297456 -0.480178 -7.044754 3.135354 -0.045907 -0.172343 0.007828
